<?xml version="1.0" encoding="UTF-8" standalone="no"?>
<!-- Created with Inkscape (http://www.inkscape.org/) -->

<svg
   width="256"
   height="256"
   viewBox="0 0 67.733332 67.733335"
   version="1.1"
   id="svg5"
   inkscape:version="1.1.1 (c3084ef, 2021-09-22)"
   sodipodi:docname="printing.svg"
   xmlns:inkscape="http://www.inkscape.org/namespaces/inkscape"
   xmlns:sodipodi="http://sodipodi.sourceforge.net/DTD/sodipodi-0.dtd"
   xmlns="http://www.w3.org/2000/svg"
   xmlns:svg="http://www.w3.org/2000/svg">
  <sodipodi:namedview
     id="namedview7"
     pagecolor="#ffffff"
     bordercolor="#eeeeee"
     borderopacity="1"
     inkscape:pageshadow="0"
     inkscape:pageopacity="0"
     inkscape:pagecheckerboard="0"
     inkscape:document-units="mm"
     showgrid="false"
     units="px"
     width="256px"
     inkscape:zoom="1.7915157"
     inkscape:cx="48.283137"
     inkscape:cy="146.52397"
     inkscape:window-width="1312"
     inkscape:window-height="961"
     inkscape:window-x="0"
     inkscape:window-y="25"
     inkscape:window-maximized="0"
     inkscape:current-layer="layer1" />
  <defs
     id="defs2" />
  <g
     inkscape:label="Layer 1"
     inkscape:groupmode="layer"
     id="layer1">
    <path
       style="fill:#f8f7f9;fill-opacity:1;stroke-width:0.112562"
       d="M 15.753585,58.889564 C 15.184747,58.658032 14.929836,58.421693 14.682117,57.896175 14.525472,57.563865 14.49822,56.767432 14.49822,52.521793 v -4.98426 h -3.565057 c -2.9276427,0 -3.6811642,-0.03049 -4.2144404,-0.170527 C 4.9997712,46.915608 3.7045559,45.666662 3.3794177,44.146993 3.2062185,43.337473 3.218067,25.045618 3.3922708,24.307591 3.7026106,22.992793 4.6712448,21.929196 6.1076476,21.325997 l 0.7986046,-0.335363 3.7959848,-0.03323 3.795985,-0.03323 v -5.348442 c 0,-4.573371 0.02665,-5.404979 0.183898,-5.7385695 0.247718,-0.5255178 0.502629,-0.7618538 1.071467,-0.9933889 0.457109,-0.1860579 1.256117,-0.1947598 18.087073,-0.1969843 15.579841,-0.00207 17.659556,0.016455 18.048972,0.1606775 0.592874,0.2195757 0.8595,0.4455268 1.120712,0.9497392 0.203805,0.393403 0.219793,0.810386 0.222229,5.795437 l 0.0025,5.371531 3.795982,0.03323 3.795989,0.03323 0.798603,0.335363 c 1.436403,0.603199 2.40504,1.666796 2.71538,2.981594 0.174198,0.738027 0.186047,19.029882 0.01284,19.839402 -0.325138,1.519669 -1.620353,2.768615 -3.339302,3.220013 -0.533278,0.140036 -1.286803,0.170527 -4.214445,0.170527 h -3.565056 l -0.0025,5.007349 c -0.0025,4.631635 -0.01911,5.039155 -0.222233,5.431253 -0.261208,0.504212 -0.527838,0.730161 -1.120712,0.949737 -0.389412,0.144224 -2.469127,0.162736 -18.048964,0.160678 C 17.0097,59.08425 16.210691,59.07562 15.753583,58.889564 Z M 49.170206,48.067411 V 40.649115 H 33.866709 18.563211 v 7.418296 7.418294 h 15.303498 15.303497 z m -24.927963,4.512724 c -0.44556,-0.176288 -0.960181,-0.654745 -1.128199,-1.048923 -0.338621,-0.794413 0.08153,-1.755703 0.944082,-2.160009 l 0.520623,-0.244036 h 9.28796 9.287962 l 0.520624,0.244036 c 0.895428,0.419716 1.299239,1.409966 0.906633,2.223301 -0.199073,0.412401 -0.730186,0.869728 -1.188205,1.023117 -0.543343,0.181966 -18.686571,0.146451 -19.15148,-0.03748 z m -0.184117,-5.816516 c -0.89543,-0.41972 -1.299241,-1.409966 -0.906634,-2.2233 0.199071,-0.412405 0.730187,-0.869728 1.188204,-1.023118 0.227155,-0.07607 3.324241,-0.112719 9.527013,-0.112719 6.202772,0 9.299858,0.03665 9.527014,0.112719 0.458019,0.15339 0.989132,0.610713 1.188205,1.023118 0.392606,0.813334 -0.01123,1.80358 -0.906633,2.2233 l -0.520624,0.244037 h -9.287962 -9.28796 z M 51.955651,31.392034 c 0.523516,-0.193888 1.130811,-0.829909 1.227179,-1.285227 0.17405,-0.822365 -0.363062,-1.711559 -1.227179,-2.03159 -0.556251,-0.206013 -6.213325,-0.204864 -6.77019,0.0015 -0.856166,0.317087 -1.397306,1.287495 -1.157734,2.076117 0.15599,0.513499 0.643621,1.045134 1.131341,1.233434 0.527262,0.203572 6.24944,0.208529 6.796583,0.0059 z M 49.170206,16.592646 V 12.247649 H 33.866709 18.563211 v 4.344997 4.345001 h 15.303498 15.303497 z"
       id="path833" />
  </g>
</svg>
