<?xml version="1.0" encoding="UTF-8" standalone="no"?>
<!-- Created with Inkscape (http://www.inkscape.org/) -->

<svg
   width="256"
   height="256"
   viewBox="0 0 67.733332 67.733335"
   version="1.1"
   id="svg5"
   xmlns="http://www.w3.org/2000/svg"
   xmlns:svg="http://www.w3.org/2000/svg">
  <defs
     id="defs2" />
  <g
     id="layer1">
    <path
       id="path4228"
       style="fill:#f8f7f9;stroke:#f8f7f9;stroke-width:0.172691px;stroke-linecap:butt;stroke-linejoin:miter;stroke-opacity:1;fill-opacity:1"
       d="m 49.038886,3.1091775 c -0.01521,-6.527e-4 -0.03015,6.526e-4 -0.04517,0.00522 -0.481965,0.1445903 -20.194697,16.0015475 -20.194697,16.0015475 0,0 -1.012149,1.87955 -0.481984,2.602501 0.530168,0.722951 0,3.036252 0,3.036252 l -4.096681,-0.09612 0.867501,-2.50638 c 0,0 -2.40977,2.07238 -2.216985,1.735006 0.192791,-0.337382 -0.530216,-1.975828 -0.530216,-1.975828 l -2.602503,2.79543 -2.940126,0.04823 0.04823,-2.313446 c 0,0 -3.180931,3.229038 -3.614701,3.036253 -0.433771,-0.192784 -1.301395,-1.494058 -1.49418,-1.783239 -0.192785,-0.28918 -0.385519,2.265217 -0.385519,2.265217 l -0.867501,1.735006 -0.144696,1.734998 c 0,0 -3.951939,-0.722938 -3.4217712,0.481985 0,0 3.3253442,0.241058 3.3735392,3.807626 l 0.867501,1.012197 1.494181,0.289057 c 0,0 0.779325,0.384983 3.180949,3.470343 0.28625,0.207327 1.180935,-0.332265 1.060428,0 l -0.04823,7.085042 c 0,0 0.674822,0.915553 1.012195,0.674574 0.337376,-0.240986 1.06043,0.09646 1.06043,0.09646 0,0 0.529943,0.819432 1.542075,0.578446 1.012138,-0.24098 1.205123,-1.156892 1.205123,-1.156892 l 6.699188,1.542409 c 0,0 0.04825,-1.783232 0.578446,-1.783232 0.53016,0 -1.494091,-1.397695 -1.831466,-0.91573 -0.337381,0.481972 -0.09646,0.674574 -0.09646,0.674574 h -1.590307 c 0,0 -1.735124,-1.349311 -2.36168,-1.108325 -0.626562,0.240985 2.650735,-2.409912 2.650735,-2.409912 0,0 2.265126,0.144466 3.518237,1.686765 l 4.723364,-0.09646 c 0,0 -0.04823,1.012282 1.734999,0.674912 l 0.192928,0.530212 c 0,0 4.24143,10.314157 9.398492,10.217762 l 0.144362,0.433751 c 0,0 7.084943,10.603336 7.422325,9.302025 0.337375,-1.301319 1.445844,-0.578583 1.301253,-1.687111 -0.14459,-1.108528 -1.638537,-1.783232 -1.638537,-1.783232 0,0 -0.09639,-1.108391 0.481978,-1.204786 0.578361,-0.09639 -0.144694,-1.831466 -0.144694,-1.831466 l -1.638538,0.04791 -0.241162,-4.67479 -3.132713,-2.506379 c 0,0 0.57823,-3.952236 0.28905,-4.289612 -0.289181,-0.337375 1.060431,-0.337283 1.060431,-0.337283 l 5.832021,4.096683 0.09613,-2.120523 1.8797,0.192589 c 0,0 3.663069,1.783487 3.85586,1.205126 0.192785,-0.578361 -1.8797,-2.458146 -1.8797,-2.458146 l 1.349481,-1.349481 h -3.22918 l 0.72314,-2.168756 c 0,0 -3.855939,1.879491 -4.434306,1.59031 -0.578355,-0.28918 -5.446151,-2.361528 -6.361894,-1.686771 -0.31705,-1.380516 -4.817559,-4.842387 -6.024617,-5.350042 l -0.337283,-0.578107 c 0,0 -2.265459,-4.38606 -3.518577,-3.904094 l -0.192589,-2.072289 2.16875,1.542077 c 0,0 2.26521,-1.108371 0.385517,-2.554274 -1.879667,-1.445909 3.759471,2.024159 2.940131,-2.458146 l 0.33729,-0.192922 3.951982,0.57844 1.735338,-1.445942 c 0,0 -1.060424,-0.771015 -1.060424,-1.204786 0,-0.433771 3.22918,-0.289057 3.22918,-0.289057 0,0 0.867601,-1.060568 -0.385517,-2.169089 -1.253118,-1.108528 6.362031,-0.481894 2.843663,-3.13272 l 0.09646,-0.289056 3.855527,-2.313444 -0.04823,-1.687111 -1.590304,-0.289057 -0.09647,-1.060424 c 0,0 4.482416,-0.867555 4.77159,-3.711166 l -3.470336,-0.09646 4.000555,-3.7108329 V 3.4520352 L 47.836835,11.548934 c 0,0 -1.590435,-0.771087 -1.301254,-1.301253 0.289181,-0.530167 3.518237,-4.6268958 3.518237,-4.6268958 0,0 -0.542789,-2.4877454 -1.014899,-2.5117709 z M 17.633125,32.334382 c 0.05451,1.76e-4 0.109857,0.002 0.16527,0.0067 0.443045,0.03407 2.555957,1.431445 2.555957,1.431445 l 0.03406,2.181229 0.920454,0.920123 -0.238799,1.124512 -2.794419,-0.102198 0.272527,-1.22671 -1.772102,-1.49958 0.136263,-2.760687 c 0,0 0.339173,-0.07815 0.720782,-0.07488 z m 3.812013,8.254079 -0.06813,1.738373 -1.874637,1.806174 -0.886052,-0.613528 v -1.942429 l 0.64759,-0.920123 z m 25.642214,12.355821 c 0.446987,-0.03342 2.282813,1.612966 2.508735,1.861484 0.240993,0.265083 0.240797,3.614946 -0.02428,3.952321 -0.265083,0.337382 -2.096236,-3.012305 -2.096236,-3.012305 L 46.969306,53.938263 47.01754,52.9743 c 0.01658,-0.01808 0.04001,-0.02807 0.06982,-0.03002 z" />
  </g>
</svg>
